<svg enable-background="new 0 0 128 128" viewBox="0 0 128 128" xmlns="http://www.w3.org/2000/svg" xmlns:xlink="http://www.w3.org/1999/xlink"><radialGradient id="a" cx="64" cy="94.09" gradientTransform="matrix(1 0 0 .457 0 51.089)" gradientUnits="userSpaceOnUse" r="55.924"><stop offset=".25" stop-color="#3b1a15"/><stop offset=".4358" stop-color="#3f1c17"/><stop offset=".6206" stop-color="#4b221c"/><stop offset=".8045" stop-color="#5f2c24"/><stop offset=".9847" stop-color="#7a3930"/></radialGradient><linearGradient id="b" gradientUnits="userSpaceOnUse" x1="64" x2="64" y1="45.19" y2="112.56"><stop offset="0" stop-color="#fff"/><stop offset=".5306" stop-color="#e0e0e0"/><stop offset=".5459" stop-color="#dedede"/><stop offset=".801" stop-color="#b8b8b8"/><stop offset=".9898" stop-color="#b8b8b8"/></linearGradient><linearGradient id="c" gradientUnits="userSpaceOnUse" x1="63.858" x2="63.858" y1="49.585" y2="73.756"><stop offset="0" stop-color="#dedede"/><stop offset=".9898" stop-color="#b8b8b8"/></linearGradient><clipPath id="d"><path d="m98.69 64.08c0 8.17-11.99 15.07-35.1 15.07-21.65 0-34.55-6.9-34.55-15.07s15.59-14.8 34.83-14.8 34.82 6.62 34.82 14.8z"/></clipPath><linearGradient id="e" gradientUnits="userSpaceOnUse" x1="64.064" x2="64.064" y1="60.569" y2="87.485"><stop offset="0" stop-color="#7cb324"/><stop offset=".1937" stop-color="#76a724"/><stop offset=".5417" stop-color="#678825"/><stop offset=".9898" stop-color="#4e5726"/></linearGradient><ellipse cx="64" cy="96.92" fill="#75352b" rx="60" ry="27.08"/><path d="m64 71.49c15.8 0 30.62 2.76 41.75 7.79 10.71 4.83 16.6 11.1 16.6 17.65s-5.9 12.81-16.6 17.65c-11.12 5.02-25.95 7.79-41.75 7.79s-30.62-2.76-41.75-7.79c-10.71-4.83-16.6-11.1-16.6-17.65s5.9-12.81 16.6-17.65c11.13-5.02 25.95-7.79 41.75-7.79m0-1.65c-33.14 0-60 12.12-60 27.08s26.86 27.08 60 27.08 60-12.12 60-27.08-26.86-27.08-60-27.08z" fill="#eee" opacity=".2"/><ellipse cx="64" cy="94.09" fill="url(#a)" rx="56.74" ry="25.61"/><path d="m101.11 58.1c-11.6-13.32-37.21-12.91-37.21-12.91s-25.47-.41-37.07 12.91c-5.11 5.86-5.35 15.93-4.67 22.52.6 5.74 3.38 18.95 14.5 25.54 5.56 3.3 16.42 6.41 27.29 6.41s21.73-3.11 27.29-6.41c11.12-6.59 14.01-19.8 14.6-25.54.69-6.6.38-16.66-4.73-22.52z" fill="url(#b)"/><path d="m64.16 46.92c2.55 0 25.26.31 35.71 12.3 5.43 6.24 4.69 17.83 4.34 21.24-.42 4.03-2.66 17.67-13.81 24.28-5.02 2.98-15.44 6.17-26.45 6.17s-21.43-3.2-26.45-6.18c-11.05-6.55-13.28-20.25-13.7-24.29-.46-4.39-.96-15.26 4.27-21.26 10.45-12 33.04-12.26 35.58-12.26l.23.08h.03.03zm0-1.73h-.25s-.09 0-.25 0c-2.67 0-25.89.36-36.82 12.91-5.11 5.86-5.35 15.93-4.67 22.52.6 5.74 3.38 18.95 14.5 25.54 5.56 3.3 16.42 6.41 27.29 6.41s21.73-3.11 27.29-6.41c11.12-6.59 14.01-19.8 14.6-25.54.69-6.59.37-16.66-4.74-22.52-10.93-12.54-34.27-12.91-36.95-12.91z" fill="#424242" opacity=".2"/><path d="m98.69 63.99c0 8.17-11.99 15.07-35.1 15.07-21.65 0-34.55-6.9-34.55-15.07s15.59-14.8 34.83-14.8 34.82 6.62 34.82 14.8z" fill="url(#c)"/><path clip-path="url(#d)" d="m95.67 70.87c0 5.64-14.15 10.07-31.6 10.07s-31.6-4.43-31.6-10.07 14.15-10.21 31.6-10.21 31.6 4.57 31.6 10.21z" fill="url(#e)"/><path d="m50.35 46.92c-1.28 4.29 2.83 9.06 5.32 11.33.28.25.05.71-.3.62-3.06-.76-8.51-2.21-10.48-8.26-1.18-3.63.56-7.59 3.88-13.3 1.95-3.41 2.88-6.55 3.14-10.27.3-3.86-.66-6.76-2.31-8.69-.26-.31.06-.75.4-.56 2.86 1.54 6.14 4.43 6.94 9.07 0 .01 0 .03.01.05.84 8.03-4.27 12.23-6.6 20.01z" fill="#78ac24" opacity=".3"/><path d="m67.07 49.16c-1.81 6.66 4.7 13.84 8.62 17.24.43.38.11 1.09-.44.97-4.74-1.06-13.18-3.07-16.44-12.32-1.95-5.54.57-11.7 5.47-20.63 2.87-5.32 4.18-10.2 4.43-15.93.31-5.95-1.28-10.38-3.89-13.29-.41-.46.06-1.16.6-.88 4.46 2.26 9.63 6.59 11.04 13.7 0 .02.01.05.01.07 1.58 12.35-6.12 19.01-9.4 31.07z" fill="#79ac24" opacity=".3"/></svg>